<svg width="310" height="462" viewBox="0 0 310 462" fill="none" xmlns="http://www.w3.org/2000/svg">
<circle cx="136.5" cy="116.5" r="28.5" fill="white" fill-opacity="0.2"/>
<circle cx="172.5" cy="394.5" r="7.5" fill="white" fill-opacity="0.2"/>
<circle cx="276.5" cy="145.5" r="14.5" fill="white" fill-opacity="0.2"/>
<rect width="14.988" height="38.7886" transform="matrix(0.674398 -0.738368 0.74266 0.669668 0 368.687)" fill="white" fill-opacity="0.2"/>
<rect width="14.988" height="38.7886" transform="matrix(0.674398 -0.738368 0.74266 0.669668 195 273.067)" fill="white" fill-opacity="0.2"/>
<rect width="14.988" height="38.7886" transform="matrix(0.674398 -0.738368 0.74266 0.669668 233 11.0666)" fill="white" fill-opacity="0.2"/>
<path d="M51.0384 258.087L59.256 169.834L132.069 221.032L51.0384 258.087Z" fill="white" fill-opacity="0.2"/>
<path d="M255.026 446.257L259.331 400.017L297.481 426.842L255.026 446.257Z" fill="white" fill-opacity="0.2"/>
<path d="M33.5 25.7569L58 50.1002L33.5 74.4435L9 50.1002L33.5 25.7569Z" fill="white" fill-opacity="0.2"/>
<path d="M293.5 314L310 330.5L293.5 347L277 330.5L293.5 314Z" fill="white" fill-opacity="0.2"/>
</svg>
